<?xml version="1.0" encoding="utf-8"?>
<!-- Generator: Adobe Illustrator 26.0.1, SVG Export Plug-In . SVG Version: 6.00 Build 0)  -->
<svg version="1.1" id="Layer_1" xmlns="http://www.w3.org/2000/svg" xmlns:xlink="http://www.w3.org/1999/xlink" x="0px" y="0px"
     viewBox="12 0 518 415" style="enable-background:new 0 0 550 420;" xml:space="preserve">
<style type="text/css">
    .st0{fill:#FF151D;}
    .st1{fill:none;stroke:#FFFFFF;stroke-width:16.6043;stroke-linecap:round;stroke-linejoin:round;stroke-miterlimit:10;}
    .st2{fill:#B00C26;}
    .st3{opacity:0.25;}
    .st4{fill:none;stroke:#000000;stroke-width:19.6232;stroke-linecap:round;stroke-linejoin:round;stroke-miterlimit:10;}
    .st5{fill:#FFFFFF;}
</style>
<g>
    <polygon class="st0" points="520.26,141.21 270.94,404.84 21.63,141.21 129.91,25.13 143.63,10.43 398.26,10.43 411.98,25.13 
            "/>
    <line class="st1" x1="218.8" y1="27.96" x2="323.08" y2="27.96"/>
    <polygon class="st2" points="21.63,141.21 172.97,141.22 270.94,404.85 	"/>
    <polygon class="st2" points="520.25,141.21 368.92,141.22 270.94,404.85 	"/>
    <polygon class="st3" points="489.76,173.46 52.17,173.46 21.67,141.22 520.26,141.22 	"/>
    <polygon class="st4" points="520.26,141.21 270.94,404.84 21.63,141.21 129.91,25.13 143.63,10.43 398.26,10.43 411.98,25.13 
            "/>
    <line class="st4" x1="21.67" y1="141.22" x2="517.09" y2="141.22"/>
    <polygon class="st4" points="411.98,25.13 326.15,45.49 215.72,45.49 129.91,25.13 143.63,10.43 398.26,10.43 	"/>
    <polygon class="st4" points="270.94,404.85 368.91,141.22 326.16,45.49 215.73,45.49 172.97,141.22 	"/>
    <circle class="st5" cx="270.94" cy="75.95" r="13.67"/>
    <circle class="st5" cx="143.57" cy="71.41" r="15.51"/>
    <circle class="st5" cx="236.11" cy="75.95" r="8.19"/>
    <circle class="st5" cx="398.35" cy="71.41" r="15.51"/>
    <circle class="st5" cx="305.81" cy="75.95" r="8.19"/>
</g>
</svg>